ply
format ascii 1.0
element vertex 292
property float x
property float y
property float z
property uchar red
property uchar green
property uchar blue
end_header
-10.653193 -1.137716 17.634886 167 147 136
-70.109505 -31.842501 118.315727 190 199 194
-3.972520 1.352089 11.071426 117 117 117
-2.960064 0.846134 9.460953 140 102 101
-2.349267 1.372500 7.905949 99 98 94
-2.591846 1.068761 8.814030 82 82 80
-4.323365 -2.435704 19.028570 137 95 109
-4.288090 -3.018354 19.070414 216 181 188
-1.824239 0.728970 9.171630 86 85 83
-3.702975 -1.628684 19.065147 184 172 192
-3.233473 -1.544132 18.998028 154 142 164
-3.181770 -1.448497 19.375980 154 131 151
-2.040992 -2.216682 16.292955 138 129 112
-2.034556 -2.150106 16.270519 124 100 74
-1.747202 0.585051 14.106251 160 156 153
-1.970426 -2.699963 16.322300 74 127 135
-1.825862 -0.309615 15.676582 147 118 112
-1.875241 -2.126426 16.238079 68 134 148
-1.840659 -1.808198 16.129431 176 154 133
-1.799435 -0.448866 15.731424 235 235 223
-1.781291 -0.331729 15.699018 115 111 102
-1.843748 -3.034395 16.473860 1 86 106
-1.905656 -5.283729 17.173613 133 126 110
-1.873368 -4.303341 16.902208 106 105 101
-1.863065 -4.031934 16.803249 171 174 167
-1.715901 -0.318116 15.724641 224 219 215
-1.715429 -1.381402 16.053038 112 97 90
-1.782576 -3.898290 16.791023 82 82 74
-1.770356 -3.966690 16.783508 63 58 55
-1.681609 -1.398910 16.024761 219 206 190
-1.704256 -2.886828 16.449863 179 185 183
-1.737063 -4.213477 16.861963 170 170 158
-1.612986 -0.412500 15.701599 96 91 85
-1.671703 -2.474180 16.344336 129 80 47
-1.606866 -0.406097 15.717580 206 203 196
-1.589205 -2.831420 16.446642 187 190 181
-1.575740 -2.959519 16.497528 133 131 116
-1.525476 -2.573890 16.355568 81 138 145
-1.518071 -3.671980 16.625919 184 184 172
-1.471710 -2.037068 16.217936 59 93 92
-1.565867 -6.277380 17.406317 194 177 161
-1.531353 -4.787692 16.998371 206 202 191
-1.413000 -2.165996 16.228075 25 106 125
-1.467247 -4.710476 16.944658 87 78 73
-1.441268 -3.857281 16.647352 140 135 116
-1.369053 -1.200818 15.916645 133 108 103
-1.451942 -4.729443 17.002813 88 79 72
-1.430974 -3.241993 16.758204 151 160 157
-1.466998 -5.732054 17.250626 217 199 187
-1.385528 -2.360902 16.321436 87 92 85
-0.724910 3.201970 8.430182 63 50 33
-1.268456 -1.060393 15.951211 111 104 96
-1.343293 -5.712999 17.202402 166 172 158
-1.340922 -5.693393 17.207165 164 158 142
-0.669286 3.231956 8.504932 104 102 89
-0.593555 2.948986 8.442465 132 132 130
-1.145850 -5.746956 17.243261 178 160 138
-0.763597 0.884330 12.318900 135 88 78
-1.080994 -6.189170 17.355875 116 71 40
-0.991552 -3.827174 16.481127 205 208 199
-0.998967 -4.481926 16.896389 146 149 140
-0.973237 -3.841919 16.482149 108 109 101
-0.930663 -3.723984 16.442833 58 54 43
-0.869747 -3.897335 16.477619 161 171 160
-0.797760 -5.981518 17.116058 152 103 70
-0.737975 -2.812686 16.439083 97 124 119
-0.646097 -1.100531 15.970102 212 199 190
-0.303293 2.297019 8.381376 122 109 103
-0.548752 -4.104962 16.796787 84 103 109
-0.521470 -2.299606 16.300201 110 69 63
-0.261739 2.399096 8.404222 104 89 86
-0.463191 -0.369939 15.774179 226 219 209
-0.248863 2.472378 8.396502 127 94 85
-0.461608 -3.658337 16.657461 214 224 213
-0.440374 -1.166274 15.941904 182 172 163
-0.446536 -2.215332 16.301573 229 188 184
-0.397502 -3.181767 16.572271 111 120 119
-0.382052 -1.187528 16.093185 137 110 103
-0.374936 -4.187394 16.863756 153 129 117
-0.330790 -3.673760 16.666222 77 82 76
-0.315198 -4.134041 16.846624 44 88 91
-0.314512 -3.767751 16.740988 215 220 214
-0.309322 -4.821450 17.006943 119 104 85
-0.299414 -5.596509 17.167177 109 129 120
-0.291117 -3.771005 16.759218 211 216 210
-0.281773 -3.121971 16.528103 103 104 99
-0.273703 -3.188621 16.593464 166 160 148
-0.272734 -3.077743 16.501186 160 166 164
-0.258303 -5.574967 17.184891 83 110 103
-0.241232 -4.150984 16.792629 160 157 148
-0.239642 -5.537842 17.180716 177 221 206
-0.229362 -5.634292 17.170542 163 204 190
-0.220173 -3.691755 16.694321 163 165 164
-0.202308 -1.149872 15.919684 182 185 176
-0.106919 2.101934 8.390810 105 67 54
-0.192512 -3.682963 16.703558 104 115 109
-0.180407 -3.420008 16.619783 145 144 139
-0.179067 -3.134581 16.521404 101 120 116
-0.175275 -4.664541 16.873291 80 110 112
-0.167414 -3.532668 16.626968 168 177 176
-0.165373 -5.847310 17.302820 87 98 92
-0.089321 2.454513 8.442808 164 112 98
-0.147215 -5.652900 17.205975 101 137 125
-0.142271 -3.282792 16.596762 139 151 151
-0.099061 -2.952933 16.531040 183 208 202
-0.017092 -5.651975 17.169975 170 202 191
-0.003497 -2.860852 16.394325 143 189 186
0.078188 -1.504930 15.790639 79 90 110
0.097372 -5.666908 17.211939 178 220 206
0.090898 -4.190283 16.900318 57 92 96
0.126756 -5.722111 17.203432 50 100 75
0.119702 -0.547428 15.832561 136 102 77
0.175276 -4.827775 17.045437 65 102 108
0.167793 -2.176299 16.267271 169 174 170
0.200901 -4.848803 17.021858 77 118 124
0.210913 -5.547794 17.147507 157 196 178
0.211964 -3.372886 16.648296 127 158 150
0.208541 -1.791973 15.863004 137 136 131
0.217395 -2.216084 16.261967 144 139 133
0.259079 -5.596754 17.206015 161 192 177
0.257506 -5.540321 17.183779 90 107 97
0.317405 -5.631053 17.203485 165 202 184
0.299100 -1.893443 16.139019 139 134 115
0.324415 -4.419503 16.893593 68 113 118
0.353874 -5.677114 17.182165 138 183 160
0.370085 -5.105199 17.086834 146 156 147
0.394540 -5.746090 17.217150 153 181 166
0.419566 -5.601087 17.161345 153 165 155
0.417584 -5.053194 17.110121 85 107 94
0.432732 -4.718128 16.972408 34 67 86
0.461857 -5.678909 17.210957 113 146 129
0.229587 1.865021 8.395849 123 83 73
0.494918 -5.599921 17.090611 155 179 165
0.562628 -2.495886 16.346146 90 86 77
0.592200 -5.653771 17.170591 89 111 98
0.580338 -1.722614 16.139223 89 111 99
0.604446 -0.385798 15.651382 48 94 94
0.680876 -5.589903 17.194036 128 162 145
0.324548 1.876585 8.417194 199 185 184
0.719386 -5.911399 17.278646 54 73 71
0.778383 -5.611110 17.203239 115 142 125
0.771626 -0.950332 15.870564 136 125 105
0.845808 -4.781631 16.975290 82 84 71
0.809931 -1.403131 15.989573 93 125 120
0.865857 -4.144341 16.802002 91 98 90
0.881753 -4.189041 16.808060 86 93 86
0.850159 0.139061 15.593469 168 121 91
0.937386 -4.716182 16.973755 130 140 131
0.903920 -1.697955 16.067163 218 225 217
0.932321 -1.513108 16.054853 169 154 135
0.248773 -0.195613 3.877861 175 134 102
1.013558 -0.230559 15.641199 170 121 81
1.065538 -2.110362 16.231466 43 98 105
0.556955 2.880163 8.577746 155 153 154
1.070381 -1.150473 15.951689 145 102 67
1.038733 0.381538 15.482305 169 106 73
1.063053 -0.754419 15.762800 168 117 86
1.123169 -2.203972 16.259470 33 90 101
1.101297 -1.281636 15.964437 144 92 53
1.212612 -5.682048 17.191607 202 175 168
1.133038 -1.412627 16.044605 171 108 73
1.252396 -0.746448 15.814610 107 98 83
1.320396 -2.604724 16.354403 195 202 186
1.333938 -2.660940 16.362589 180 183 166
1.386335 -3.200622 16.560484 96 96 86
1.338518 -1.692221 15.986009 26 81 86
1.327832 -0.836598 15.824735 164 161 146
1.406379 -3.195634 16.541210 95 86 79
1.378224 -2.191911 16.230993 190 173 145
1.550398 -5.642698 17.178827 168 176 165
1.626974 -2.486555 16.286648 145 99 65
1.646156 -2.390032 16.293671 169 113 76
1.696743 -2.625136 16.371870 179 177 164
1.686498 -2.203876 16.232855 174 131 96
1.841040 -6.054228 17.344383 102 113 109
0.909964 2.989721 8.612714 120 121 139
1.922069 -6.126997 17.473362 88 97 94
1.760560 -0.534055 15.673691 84 96 86
1.898073 -3.114007 16.497406 71 94 88
1.813510 -0.258530 15.583784 116 124 113
1.822360 -0.229834 15.566936 79 94 87
1.928604 -3.148978 16.455904 93 106 97
2.029600 -5.703983 17.248831 97 96 91
1.935765 -2.127117 16.204056 220 181 150
2.071558 -5.618804 17.203373 142 159 151
2.105675 -5.660603 17.215506 84 78 66
1.931238 0.076055 15.521274 90 100 92
1.983579 0.205264 15.521664 154 146 135
1.994044 0.187346 15.500120 73 66 56
1.130846 2.705827 8.596725 147 125 112
2.087193 -0.479996 15.545666 141 128 109
2.272366 -4.259292 16.763372 68 66 51
2.271677 -3.196701 16.494738 156 121 89
2.163622 -0.784212 15.613814 167 154 137
2.334585 -4.286427 16.822865 140 137 132
2.334837 -4.204857 16.823252 36 42 28
2.158588 -0.442838 15.502789 98 85 69
2.159238 0.211751 15.521787 215 207 194
2.286603 -3.146372 16.382267 159 120 87
2.168529 -0.573402 15.521235 192 173 156
2.371217 -2.456265 16.263296 222 216 202
2.409281 -3.271326 16.489746 64 76 66
2.406443 -2.565729 16.318703 207 204 185
2.281111 -0.408108 15.419533 179 145 118
2.369319 -1.265009 15.961600 215 200 177
2.311924 -0.590977 15.469627 175 161 148
2.302982 -0.528649 15.422280 209 196 180
2.465670 -2.576111 16.324270 211 183 159
2.580631 -4.894623 17.023241 27 85 96
2.503744 -3.195431 16.526274 139 109 75
2.499692 -3.085571 16.474304 195 170 148
2.412073 -1.125540 15.902224 215 208 192
2.423794 -1.257793 15.939392 184 177 151
2.424298 -1.224799 15.940374 187 190 163
2.541680 -3.459458 16.596415 155 106 76
2.446399 -1.194798 15.916250 187 183 158
2.551062 -3.287356 16.547947 153 100 68
2.504085 -2.541665 16.244751 154 108 75
2.546746 -3.172791 16.503321 222 192 168
2.546818 -2.994475 16.380350 91 50 22
2.559332 -3.050224 16.462044 183 162 145
2.437780 0.062746 15.504198 91 91 81
2.616174 -3.131024 16.494621 197 174 158
2.783196 -5.552038 17.221357 172 187 180
2.733093 -4.662606 16.926050 80 65 42
2.644930 -2.834028 16.370222 116 85 56
2.561739 0.490651 15.556724 115 35 36
2.585152 0.495408 15.593880 101 31 29
2.584516 0.130072 15.473894 81 74 66
2.855885 -3.709295 16.671240 75 104 100
2.900354 -3.043709 16.493135 58 57 39
2.768450 -0.479640 15.706475 132 150 134
2.993962 -4.620374 16.961542 82 103 96
2.780526 -0.225899 15.631667 178 177 159
3.028656 -4.738410 16.946564 217 191 176
3.066049 -5.063396 17.108431 155 103 79
2.981236 -3.665169 16.650263 91 83 62
3.474882 -1.147575 18.037939 99 49 40
3.624169 -0.912154 18.219797 126 47 50
3.699450 -1.055334 17.874855 91 49 37
4.296447 -2.685935 18.287964 171 168 153
2.280752 1.972575 8.589904 196 167 153
5.473950 -2.943331 18.875671 151 140 136
5.571651 -4.592840 18.939043 148 143 139
5.980978 -2.316416 19.537960 112 83 85
7.199609 -3.562120 19.818399 191 157 155
15.227117 -11.591421 40.648666 51 67 66
15.451526 -14.428876 34.113529 136 154 158
16.077049 -14.169382 35.196926 180 194 197
15.491311 -12.293805 33.727844 105 115 116
15.877661 -14.260491 34.013046 185 199 200
16.356293 -14.762684 34.709290 154 165 161
16.989035 -13.649656 35.991592 135 149 149
16.459084 -14.638110 34.778885 173 184 188
17.526831 -14.180640 37.052391 191 203 203
16.533075 -13.314571 34.540527 176 188 186
16.711452 -12.903399 34.144211 204 216 214
17.066896 -12.950539 34.635380 160 169 166
16.886143 -12.477658 33.936504 168 178 177
17.183538 -13.276398 34.315403 193 202 197
17.305683 -13.300670 34.251862 181 187 183
13.183175 -4.328731 24.604239 163 77 80
19.543724 -14.919284 36.336788 161 191 201
17.955784 -9.205554 32.990326 163 171 174
17.881830 -9.126092 32.819763 164 172 174
18.061022 -10.136311 33.049274 106 118 132
18.201317 -11.355501 32.848648 108 121 129
18.342730 -9.225609 33.068657 133 143 145
18.288162 -10.080511 32.852188 152 156 165
18.659924 -9.474339 33.515747 101 114 123
18.075655 -9.893950 32.405018 160 173 182
18.374739 -10.197581 32.640686 66 74 85
18.706053 -9.090812 32.817112 88 90 87
18.777655 -9.285922 32.888756 88 90 87
18.660923 -9.059566 32.570271 122 123 118
18.677687 -8.736716 32.514847 117 115 103
18.704054 -7.550326 32.550018 99 90 73
19.035084 -9.458493 33.080372 91 90 86
18.819944 -8.711040 32.680889 55 51 40
18.768282 -8.376371 32.465599 96 90 78
18.871174 -8.354643 32.626205 101 92 83
19.060734 -9.127855 32.940334 115 111 102
18.980959 -8.789411 32.752209 74 71 64
12.938981 -3.484874 21.393326 139 12 23
19.314787 -10.980344 31.750151 141 160 164
21.697416 -14.113522 35.270756 143 153 152
18.068203 -9.218870 29.455538 85 93 112
19.796556 -11.423870 32.154839 148 167 171
18.242144 -8.543958 29.470968 176 177 172
18.270388 -9.619265 29.298542 70 137 192
18.367754 -9.140919 29.420122 69 112 155
18.490524 -9.919598 29.463568 7 102 168
